# xmcd
#
# Track frame offsets:
#	150
#	23181
#	40566
#	53212
#	75671
#	99093
#	123720
#	142124
#	157552
#	182895
#	199898
#	216977
#	236321
#
# Disc length: 3341 seconds
# Revision: 0
# Processed by: cddbd v1.5.2PL0 Copyright (c) Steve Scherf et al.
# Submitted via: dBpowerAMP V12.0
#
DISCID=a70d0b0d
DTITLE=Jim Jones - Race With Thå Wind
DYEAR=2015
DGENRE=Country/Western
TTITLE0=Race with the Wind
TTITLE1=Old Soldier
TTITLE2=Good Ride
TTITLE3=The Fires of Goliad
TTITLE4=Rustler's Moon
TTITLE5=You Can't Get There From Here
TTITLE6=She Left Anyway
TTITLE7=True Texas Treasure
TTITLE8=Waning Moon
TTITLE9=Common Ground
TTITLE10=Smoke of the Brandin' Fire
TTITLE11=On the Wings of the Wind
TTITLE12=Long May You Ride
EXTD=
EXTT0=
EXTT1=
EXTT2=
EXTT3=
EXTT4=
EXTT5=
EXTT6=
EXTT7=
EXTT8=
EXTT9=
EXTT10=
EXTT11=
EXTT12=
PLAYORDER=
